<?xml version="1.0" encoding="UTF-8"?>
<!DOCTYPE svg PUBLIC "-//W3C//DTD SVG 1.1//EN" "http://www.w3.org/Graphics/SVG/1.1/DTD/svg11.dtd">
<!-- Creator: CorelDRAW X7 -->
<svg xmlns="http://www.w3.org/2000/svg" xml:space="preserve" width="512px" height="512px" version="1.1" shape-rendering="geometricPrecision" text-rendering="geometricPrecision" image-rendering="optimizeQuality" fill-rule="evenodd" clip-rule="evenodd"
viewBox="0 0 512 512"
 xmlns:xlink="http://www.w3.org/1999/xlink">
 <g id="Слой_x0020_1">
  <metadata id="CorelCorpID_0Corel-Layer"/>
  <path fill="#2B2A29" fill-rule="nonzero" d="M430 115l0 363c0,9 -4,18 -10,24 -6,6 -15,10 -24,10l-271 0c-9,0 -18,-4 -24,-10 -6,-6 -10,-15 -10,-24l0 -363 23 0 0 363c0,3 2,5 3,7 2,2 5,3 8,3l271 0c3,0 5,-1 7,-3 2,-2 3,-4 3,-7l0 -363 24 0zm-248 -37c1,-22 8,-41 19,-54 28,-32 81,-32 108,0 11,13 17,31 18,54l144 0 0 24 -422 0 0 -24 133 0zm37 -39c-8,9 -13,23 -14,39l99 0c-1,-17 -5,-30 -13,-39 -17,-21 -54,-21 -72,0zm137 93l0 310 -24 0 0 -310 24 0zm-90 0l0 310 -23 0 0 -310 23 0zm-84 0l0 310 -24 0 0 -310 24 0z"/>
 </g>
</svg>
