<?xml version="1.0" encoding="UTF-8"?>
<!DOCTYPE svg PUBLIC "-//W3C//DTD SVG 1.1//EN" "http://www.w3.org/Graphics/SVG/1.1/DTD/svg11.dtd">
<!-- Creator: CorelDRAW X7 -->
<svg xmlns="http://www.w3.org/2000/svg" xml:space="preserve" width="512px" height="512px" version="1.1" shape-rendering="geometricPrecision" text-rendering="geometricPrecision" image-rendering="optimizeQuality" fill-rule="evenodd" clip-rule="evenodd"
viewBox="0 0 512 512"
 xmlns:xlink="http://www.w3.org/1999/xlink">
 <g id="Слой_x0020_1">
  <metadata id="CorelCorpID_0Corel-Layer"/>
  <path fill="black" fill-rule="nonzero" d="M458 70l0 54 54 0 0 18 -54 0 0 54 -17 0 0 -54 -54 0 0 -18 54 0 0 -54 17 0zm-423 64l101 0 5 0 2 4 30 39 183 0c10,0 18,4 24,10l0 0c7,6 11,15 11,24l0 197c0,9 -4,17 -11,24l0 0c-6,6 -15,10 -24,10l-321 0c-10,0 -18,-4 -25,-10 -6,-6 -10,-15 -10,-24l0 -240c0,-9 4,-18 10,-24l0 0 0 0c7,-6 15,-10 25,-10zm97 18l-97 0c-5,0 -9,2 -12,5l0 0c-3,3 -5,7 -5,11l0 240c0,4 2,8 5,11 3,3 7,5 12,5l321 0c5,0 9,-2 12,-5 3,-3 5,-7 5,-11l0 -197c0,-4 -2,-9 -5,-12l0 0c-3,-3 -7,-5 -12,-5l-187 0 -4 0 -3 -3 -30 -39z"/>
 </g>
</svg>
