<?xml version="1.0" encoding="UTF-8"?>
<!DOCTYPE svg PUBLIC "-//W3C//DTD SVG 1.1//EN" "http://www.w3.org/Graphics/SVG/1.1/DTD/svg11.dtd">
<!-- Creator: CorelDRAW X7 -->
<svg xmlns="http://www.w3.org/2000/svg" xml:space="preserve" width="512px" height="512px" version="1.1" shape-rendering="geometricPrecision" text-rendering="geometricPrecision" image-rendering="optimizeQuality" fill-rule="evenodd" clip-rule="evenodd"
viewBox="0 0 512 512"
 xmlns:xlink="http://www.w3.org/1999/xlink">
 <g id="Слой_x0020_1">
  <metadata id="CorelCorpID_0Corel-Layer"/>
  <path fill="black" fill-rule="nonzero" d="M205 154c50,0 94,20 127,53l0 0c32,32 52,77 52,126 0,49 -20,94 -52,126 -33,33 -77,53 -127,53 -49,0 -94,-20 -126,-53l0 0c-32,-32 -53,-77 -53,-126 0,-49 20,-94 53,-126l0 0 0 0c32,-33 77,-53 126,-53zm186 -154l24 0 0 72 70 0 0 24 -70 0 0 72 -24 0 0 -72 -74 0 0 -24 74 0 0 -72zm-93 240c-24,-24 -57,-38 -93,-38 -36,0 -69,14 -93,38l0 0c-23,24 -38,57 -38,93 0,36 15,69 38,93l0 0c24,24 57,38 93,38 36,0 69,-14 93,-38 24,-24 38,-57 38,-93 0,-36 -14,-69 -38,-93l0 0z"/>
 </g>
</svg>
