<?xml version="1.0" encoding="UTF-8"?>
<!DOCTYPE svg PUBLIC "-//W3C//DTD SVG 1.1//EN" "http://www.w3.org/Graphics/SVG/1.1/DTD/svg11.dtd">
<!-- Creator: CorelDRAW X7 -->
<svg xmlns="http://www.w3.org/2000/svg" xml:space="preserve" width="512px" height="512px" version="1.1" shape-rendering="geometricPrecision" text-rendering="geometricPrecision" image-rendering="optimizeQuality" fill-rule="evenodd" clip-rule="evenodd"
viewBox="0 0 512 512"
 xmlns:xlink="http://www.w3.org/1999/xlink">
 <g id="Слой_x0020_1">
  <metadata id="CorelCorpID_0Corel-Layer"/>
  <path fill="black" fill-rule="nonzero" d="M83 140l47 0 0 -49c0,-25 10,-47 27,-64 16,-16 39,-26 64,-26l67 0c25,0 47,10 64,26 16,17 26,39 26,64l0 49 53 0c15,0 28,6 37,15l0 0 0 0c10,10 15,23 15,37l0 269c0,14 -5,27 -15,36l0 0 0 0c-9,10 -22,16 -37,16l-348 0c-14,0 -27,-6 -37,-16l0 0 0 0c-9,-9 -15,-22 -15,-36l0 -269c0,-14 6,-27 15,-37l0 0 0 0c10,-9 23,-15 37,-15zm147 129l50 0 0 103 -50 0 0 -103zm-73 -129l195 0 0 -49c0,-17 -8,-33 -19,-45 -12,-11 -28,-19 -45,-19l-67 0c-18,0 -34,8 -45,19 -12,12 -19,28 -19,45l0 49zm274 27l-53 0 -13 0 -221 0 -14 0 -47 0c-7,0 -13,2 -18,7l0 0c-4,5 -7,11 -7,18l0 269c0,6 3,13 7,17l0 0c5,5 11,8 18,8l348 0c7,0 14,-3 18,-8l0 0c5,-4 8,-11 8,-17l0 -269c0,-7 -3,-13 -8,-18l0 0c-4,-5 -11,-7 -18,-7z"/>
 </g>
</svg>
