<?xml version="1.0" encoding="UTF-8"?>
<!DOCTYPE svg PUBLIC "-//W3C//DTD SVG 1.1//EN" "http://www.w3.org/Graphics/SVG/1.1/DTD/svg11.dtd">
<!-- Creator: CorelDRAW X7 -->
<svg xmlns="http://www.w3.org/2000/svg" xml:space="preserve" width="512px" height="512px" version="1.1" shape-rendering="geometricPrecision" text-rendering="geometricPrecision" image-rendering="optimizeQuality" fill-rule="evenodd" clip-rule="evenodd"
viewBox="0 0 512 512"
 xmlns:xlink="http://www.w3.org/1999/xlink">
 <g id="Слой_x0020_1">
  <metadata id="CorelCorpID_0Corel-Layer"/>
  <path fill="black" fill-rule="nonzero" d="M256 0c70,0 134,29 181,75 46,47 75,111 75,181 0,71 -29,135 -75,181 -47,47 -111,75 -181,75 -71,0 -135,-28 -181,-75 -47,-46 -75,-110 -75,-181 0,-70 28,-134 75,-181 46,-46 110,-75 181,-75zm1 93l2 174 133 1 0 21 -144 -1 -10 0 0 -10 -2 -185 21 0zm165 -3c-43,-42 -102,-69 -166,-69 -65,0 -124,27 -166,69 -43,43 -69,101 -69,166 0,65 26,124 69,166 42,43 101,69 166,69 64,0 123,-26 166,-69 42,-42 69,-101 69,-166 0,-65 -27,-123 -69,-166z"/>
 </g>
</svg>
